<?xml version="1.0" standalone="no"?>
<!DOCTYPE svg PUBLIC "-//W3C//DTD SVG 20010904//EN"
 "http://www.w3.org/TR/2001/REC-SVG-20010904/DTD/svg10.dtd">
<svg version="1.0" xmlns="http://www.w3.org/2000/svg"
 width="585.000000pt" height="585.000000pt" viewBox="0 0 585.000000 585.000000"
 preserveAspectRatio="xMidYMid meet">

<g transform="translate(0.000000,585.000000) scale(0.100000,-0.100000)"
fill="#000000" stroke="none">
<path d="M2751 5640 c-679 -46 -1353 -356 -1804 -830 -461 -484 -716 -1087
-744 -1760 -26 -637 195 -1299 596 -1780 420 -505 1038 -846 1716 -947 175
-26 643 -26 805 0 440 71 818 215 1155 440 166 111 250 180 395 327 205 206
352 413 486 686 65 133 170 413 162 435 -3 8 -173 -138 -339 -293 -178 -166
-461 -382 -628 -481 -260 -153 -426 -221 -881 -362 -277 -85 -430 -137 -720
-245 -268 -100 -449 -160 -565 -187 -101 -23 -362 -24 -440 -1 l-50 14 -3 90
c-1 54 1 84 7 75 11 -17 78 -30 156 -31 80 0 220 24 325 55 47 14 92 28 100
30 65 19 123 43 115 47 -6 3 -4 3 3 2 17 -5 164 50 156 58 -3 4 3 4 14 1 11
-2 23 0 26 6 4 6 14 11 22 11 9 0 43 11 77 24 198 77 256 99 392 144 83 27
191 62 240 77 114 34 172 54 212 71 17 8 37 14 43 14 44 0 417 150 436 176 7
8 16 14 20 13 22 -4 35 2 28 12 -4 7 -1 10 7 7 16 -6 109 40 189 93 30 20 80
51 111 67 118 63 328 223 590 449 218 187 301 257 372 311 64 50 61 43 84 177
22 129 25 608 5 725 -96 539 -290 955 -630 1351 -160 187 -339 343 -552 484
-505 332 -1086 485 -1689 445z m271 -190 c-19 -4 -66 -4 -105 0 -72 7 -72 7
33 8 72 0 95 -3 72 -8z m-269 -7 c-13 -2 -35 -2 -50 0 -16 2 -5 4 22 4 28 0
40 -2 28 -4z m420 0 c-18 -2 -48 -2 -65 0 -18 2 -4 4 32 4 36 0 50 -2 33 -4z
m-550 -10 c-7 -2 -19 -2 -25 0 -7 3 -2 5 12 5 14 0 19 -2 13 -5z m654 1 c-3
-3 -12 -4 -19 -1 -8 3 -5 6 6 6 11 1 17 -2 13 -5z m60 -10 c-3 -3 -12 -4 -19
-1 -8 3 -5 6 6 6 11 1 17 -2 13 -5z m-834 -11 c-7 -2 -19 -2 -25 0 -7 3 -2 5
12 5 14 0 19 -2 13 -5z m-63 -13 c-8 -5 -26 -9 -40 -9 -23 1 -23 2 5 9 43 11
52 11 35 0z m-73 -16 c-3 -3 -12 -4 -19 -1 -8 3 -5 6 6 6 11 1 17 -2 13 -5z
m-50 -10 c-3 -3 -12 -4 -19 -1 -8 3 -5 6 6 6 11 1 17 -2 13 -5z m-49 -21 c-10
-2 -26 -2 -35 0 -10 3 -2 5 17 5 19 0 27 -2 18 -5z m1379 1 c-3 -3 -12 -4 -19
-1 -8 3 -5 6 6 6 11 1 17 -2 13 -5z m-1482 -23 c-3 -5 -31 -17 -63 -26 -31 -9
-59 -20 -62 -24 -3 -5 -21 -11 -40 -14 -31 -5 -32 -5 -10 5 14 6 34 14 45 19
11 5 45 18 75 28 30 10 56 19 58 20 2 0 1 -3 -3 -8z m1700 -59 c-3 -3 -11 0
-18 7 -9 10 -8 11 6 5 10 -3 15 -9 12 -12z m-1924 -31 c-14 -10 -31 -17 -39
-14 -11 5 -11 7 -1 14 7 4 16 6 20 3 4 -2 10 0 14 6 3 5 12 10 18 10 7 0 1 -9
-12 -19z m634 -54 c6 -31 52 -80 66 -71 5 3 9 0 9 -5 0 -6 10 -11 23 -11 44 0
50 -17 9 -23 -49 -6 -85 -32 -101 -72 -30 -73 -30 -72 -30 -43 -1 37 -11 59
-24 51 -6 -4 -8 0 -4 10 10 28 -38 57 -94 57 -27 0 -49 5 -49 10 0 6 17 10 38
10 40 1 87 22 87 39 0 6 5 12 10 13 19 2 34 33 35 73 1 35 3 37 10 15 4 -14
11 -38 15 -53z m924 49 c8 -14 11 -31 8 -39 -3 -8 -1 -19 5 -25 12 -12 2 -32
-15 -31 -9 0 -9 2 1 6 6 2 12 9 12 14 0 6 -8 5 -20 -1 -11 -6 -37 -9 -58 -8
-39 3 -43 9 -41 53 2 52 2 52 49 54 40 2 48 -2 59 -23z m-1639 -21 c0 -6 -56
-35 -67 -35 -9 0 48 38 60 39 4 1 7 -1 7 -4z m2175 -13 c-3 -3 -11 0 -18 7 -9
10 -8 11 6 5 10 -3 15 -9 12 -12z m75 -37 c0 -2 -7 -1 -17 2 -12 5 -14 3 -8
-7 5 -9 4 -11 -3 -6 -7 4 -12 14 -12 22 0 12 4 12 20 4 11 -6 20 -13 20 -15z
m-2343 4 c-9 -6 -15 -14 -12 -19 3 -5 0 -12 -6 -16 -8 -4 -9 -3 -5 4 9 16 -17
15 -32 0 -6 -6 -14 -9 -17 -7 -5 6 64 47 80 48 6 0 2 -4 -8 -10z m1650 -43 c0
-8 -6 -12 -15 -8 -10 3 -13 1 -8 -6 5 -8 2 -10 -10 -5 -14 5 -13 8 7 19 13 7
24 13 25 14 0 0 1 -6 1 -14z m-1737 -6 c0 -5 -5 -10 -11 -10 -5 0 -7 5 -4 10
3 6 8 10 11 10 2 0 4 -4 4 -10z m1660 0 c3 -2 10 -1 15 0 6 1 7 -2 3 -5 -4 -4
-3 -16 2 -26 27 -50 -42 -101 -83 -61 -19 19 -32 76 -15 66 4 -3 12 5 18 16 9
17 31 21 60 10z m-1690 -13 c0 -2 -15 -13 -32 -26 l-33 -22 28 25 c26 24 37
31 37 23z m2606 -33 c1 -9 0 -13 -4 -10 -3 4 -7 14 -8 22 -1 9 0 13 4 10 3 -4
7 -14 8 -22z m-1992 -6 c21 -30 20 -55 -3 -75 -11 -9 -17 -22 -14 -30 4 -9 0
-11 -11 -7 -9 3 -14 10 -11 14 8 14 -38 20 -54 7 -14 -10 -14 -10 -4 4 7 9 10
19 6 22 -11 12 -5 70 9 78 25 16 66 10 82 -13z m981 12 c3 -5 1 -10 -4 -10 -6
0 -11 5 -11 10 0 6 2 10 4 10 3 0 8 -4 11 -10z m1094 -48 c18 -14 21 -21 11
-27 -8 -5 -11 -4 -7 2 7 11 -20 28 -36 24 -5 -1 -5 4 -1 10 5 8 2 10 -8 7 -8
-4 -15 0 -15 7 0 15 15 9 56 -23z m-1702 3 c0 -8 -4 -12 -9 -9 -5 3 -6 10 -3
15 9 13 12 11 12 -6z m1012 6 c13 -8 34 -91 22 -89 -3 1 -19 -2 -35 -7 -18 -5
-36 -4 -46 3 -13 8 -21 7 -30 -1 -10 -9 -11 -9 -4 3 5 8 9 27 10 43 3 49 44
73 83 48z m-2119 -5 c0 -2 -8 -10 -17 -17 -16 -13 -17 -12 -4 4 13 16 21 21
21 13z m979 -13 c-7 -10 -14 -19 -15 -21 -1 -2 -4 4 -8 13 -3 9 -2 13 4 10 6
-3 10 -1 10 4 0 6 5 11 11 11 8 0 7 -6 -2 -17z m1044 -31 c-3 -12 -9 -19 -14
-16 -5 3 -4 14 2 25 13 26 20 21 12 -9z m-2073 3 c-7 -9 -15 -13 -19 -10 -3 3
1 10 9 15 21 14 24 12 10 -5z m390 0 c0 -10 -41 -11 -49 -1 -8 10 -3 11 19 8
17 -2 30 -5 30 -7z m-54 -19 c24 -24 22 -54 -5 -78 -24 -21 -86 -34 -75 -16 3
4 0 8 -5 8 -6 0 -10 3 -9 8 3 16 -15 41 -25 35 -7 -4 -1 6 11 22 34 43 77 51
108 21z m485 7 c13 -16 12 -17 -3 -4 -17 13 -22 21 -14 21 2 0 10 -8 17 -17z
m2095 6 c3 -6 1 -16 -6 -22 -10 -9 -11 -9 -5 2 4 8 2 17 -6 22 -9 6 -10 9 -2
9 6 0 15 -5 19 -11z m-2449 -6 c-4 -3 0 -14 8 -23 21 -23 16 -40 -18 -66 -43
-33 -62 -23 -95 50 -3 5 1 5 8 1 10 -6 12 -2 8 13 -4 12 -2 20 2 17 5 -3 11
-1 15 5 3 5 22 10 42 10 20 0 33 -3 30 -7z m-522 -28 c-16 -14 -34 -25 -40
-25 -9 0 55 49 65 49 3 0 -8 -11 -25 -24z m2567 -17 c9 -1 15 -5 13 -8 -2 -4
9 -14 26 -24 16 -9 29 -22 29 -27 0 -6 6 -7 13 -3 6 4 9 3 4 -1 -4 -5 0 -16 9
-26 12 -14 21 -16 41 -8 36 13 119 11 156 -4 18 -8 46 -26 64 -41 20 -17 33
-22 35 -14 3 7 7 5 11 -6 4 -10 3 -15 -3 -11 -18 11 -11 -10 11 -33 18 -20 20
-34 18 -110 -2 -79 -4 -90 -30 -124 -16 -20 -28 -42 -26 -50 2 -7 2 -10 0 -5
-9 14 -25 7 -19 -9 3 -8 2 -12 -4 -9 -14 9 -52 -14 -44 -27 4 -6 3 -8 -2 -5
-11 6 -150 -61 -147 -71 1 -3 10 -7 19 -8 9 -1 19 -5 22 -8 8 -9 -30 -2 -46 7
-16 10 -93 -23 -85 -36 4 -6 1 -7 -6 -2 -7 4 -31 -1 -53 -11 -39 -18 -39 -18
-16 -31 18 -11 18 -13 3 -8 -28 10 -35 10 -78 1 -30 -7 -42 -5 -56 8 -11 10
-21 14 -23 9 -3 -4 -3 -2 -2 4 2 7 -25 73 -60 147 -35 74 -67 143 -71 155 -3
12 -11 21 -16 21 -6 0 -7 5 -4 10 3 6 3 16 -2 23 -20 32 -25 166 -7 192 8 11
14 27 14 37 0 10 6 18 14 18 16 0 29 27 21 41 -4 5 1 6 9 3 9 -3 16 -2 16 4 0
5 8 13 18 16 9 4 33 13 52 21 31 13 86 14 182 3z m-949 -24 c21 -8 44 -11 50
-7 6 3 7 1 3 -5 -4 -7 3 -14 18 -18 13 -3 32 -14 42 -25 21 -24 41 -25 23 -1
-13 15 -12 16 4 3 9 -8 15 -16 13 -18 -3 -3 20 -35 50 -71 30 -36 54 -72 54
-79 0 -7 4 -13 9 -13 5 0 8 -6 8 -12 -1 -7 2 -33 7 -58 6 -30 11 -39 15 -28 3
10 6 -19 6 -62 0 -44 -3 -80 -7 -80 -5 0 -8 -9 -8 -20 0 -11 -9 -42 -19 -70
-11 -27 -14 -47 -8 -43 18 11 -54 -77 -105 -129 -117 -118 -320 -149 -485 -73
-29 13 -54 22 -54 19 -1 -2 -2 -8 -3 -13 0 -5 -4 -13 -8 -17 -4 -3 -5 4 -3 17
4 18 -6 34 -42 69 -26 25 -51 44 -56 42 -5 -1 -6 1 -3 6 6 11 -28 64 -37 57
-4 -3 -5 -2 -3 1 3 3 -5 29 -16 58 -17 41 -22 73 -22 163 -1 68 -5 113 -11
113 -5 0 -2 6 7 14 14 10 42 63 39 74 -1 1 8 11 19 22 11 11 20 26 20 33 0 8
-4 7 -11 -3 -9 -13 -10 -13 -6 0 2 8 9 15 16 15 15 0 31 26 24 39 -3 5 -1 6 6
2 6 -4 18 -2 26 4 18 15 20 34 3 24 -7 -4 -8 -3 -4 4 4 6 13 9 21 6 8 -3 28 4
46 17 17 12 63 32 103 45 60 20 84 22 155 18 46 -3 102 -12 124 -20z m64 10
c-3 -3 -12 -4 -19 -1 -8 3 -5 6 6 6 11 1 17 -2 13 -5z m-1742 -14 c-3 -5 -16
-15 -28 -21 -19 -9 -19 -8 3 10 28 23 34 26 25 11z m349 2 c3 -5 -8 -6 -25 -4
-16 2 -29 6 -29 8 0 8 49 4 54 -4z m334 -15 c6 -5 12 -6 12 -1 0 4 5 3 12 -4
8 -8 8 -15 -1 -26 -7 -8 -10 -19 -7 -24 10 -17 -32 -45 -59 -40 -21 4 -23 3
-14 -9 10 -11 8 -12 -6 -7 -18 7 -18 9 0 -53 8 -30 -10 -92 -38 -126 -16 -21
-38 -32 -77 -41 -47 -11 -58 -10 -89 6 -74 37 -91 63 -91 141 0 43 5 61 28 90
15 20 39 41 55 48 30 13 123 5 144 -13 9 -7 13 -7 13 1 0 6 5 11 11 11 5 0 7
-5 3 -12 -4 -7 -3 -8 4 -4 6 4 9 13 6 21 -3 8 6 26 20 39 25 26 44 26 74 3z
m2451 -9 c-10 -18 -9 -20 7 -14 15 5 16 4 7 -5 -17 -17 -35 -2 -23 20 5 10 6
22 2 26 -4 5 -1 5 6 1 9 -5 9 -12 1 -28z m-1308 5 c13 -16 12 -17 -3 -4 -17
13 -22 21 -14 21 2 0 10 -8 17 -17z m507 -18 c-3 -3 -9 2 -12 12 -6 14 -5 15
5 6 7 -7 10 -15 7 -18z m-1997 -5 c6 0 7 5 4 10 -3 6 -1 10 5 10 14 0 6 -27
-29 -100 -15 -30 -26 -64 -24 -75 1 -11 6 -34 9 -52 4 -23 1 -37 -10 -48 -9
-9 -16 -13 -16 -9 0 4 -3 5 -6 2 -3 -4 0 -16 6 -28 11 -21 12 -21 31 -4 10 9
22 14 26 11 3 -4 13 -1 22 5 9 7 13 9 10 5 -7 -9 36 -57 51 -57 5 0 16 -7 24
-16 15 -14 16 -14 16 2 0 10 3 14 7 11 3 -4 0 -25 -7 -47 -13 -39 -14 -40 -49
-34 -20 4 -54 8 -75 8 -24 1 -41 7 -44 15 -3 9 0 11 9 6 11 -6 12 -5 2 6 -7 7
-13 26 -13 41 0 25 -2 27 -19 18 -14 -7 -22 -7 -26 0 -4 6 -3 10 2 9 26 -5 33
2 23 21 -6 12 -19 19 -32 17 -30 -3 -53 60 -30 85 13 16 13 18 -1 24 -16 6
-12 34 5 34 6 0 8 -6 5 -14 -8 -21 25 -30 39 -12 12 17 29 22 19 6 -3 -5 -1
-10 4 -10 6 0 11 4 11 9 0 18 -19 22 -42 10 -13 -6 -20 -8 -15 -4 4 5 -3 19
-15 32 -16 17 -19 28 -12 43 10 23 117 91 122 78 2 -4 8 -8 13 -8z m1540 -28
c-7 -2 -18 1 -23 6 -8 8 -4 9 13 5 13 -4 18 -8 10 -11z m1344 -2 c16 -17 16
-20 3 -15 -9 4 -19 13 -22 21 -7 19 -2 18 19 -6z m-1315 -10 c0 -5 -5 -10 -11
-10 -5 0 -7 5 -4 10 3 6 8 10 11 10 2 0 4 -4 4 -10z m-2013 -14 c-3 -7 0 -20
6 -27 7 -7 2 -6 -9 4 -21 17 -22 17 -45 -11 -14 -15 -31 -32 -39 -36 -8 -5 5
12 30 38 44 46 67 59 57 32z m3392 -30 c9 -11 9 -16 -1 -22 -7 -4 -10 -4 -6 1
4 4 3 14 -3 22 -6 7 -9 13 -6 13 2 0 10 -6 16 -14z m-2609 -16 c0 -5 -8 -10
-17 -10 -15 0 -16 2 -3 10 19 12 20 12 20 0z m88 -55 c-3 -44 -6 -49 -33 -57
-19 -5 -39 -3 -58 7 -27 13 -28 13 -22 -8 5 -17 4 -19 -4 -6 -7 10 -6 29 1 57
10 39 14 43 49 48 22 4 42 11 45 16 13 21 25 -11 22 -57z m2563 28 c13 -16 12
-17 -3 -4 -17 13 -22 21 -14 21 2 0 10 -8 17 -17z m-3536 -23 c3 -5 1 -10 -4
-10 -6 0 -11 5 -11 10 0 6 2 10 4 10 3 0 8 -4 11 -10z m1339 -5 c3 -8 1 -15
-4 -15 -6 0 -10 7 -10 15 0 8 2 15 4 15 2 0 6 -7 10 -15z m2235 -9 c8 -10 9
-16 1 -21 -6 -4 -9 -1 -8 7 2 7 -3 12 -10 10 -8 -1 -11 2 -7 8 8 13 10 13 24
-4z m-3609 -16 c-6 -11 -8 -24 -5 -29 6 -11 -22 -8 -32 4 -4 4 -3 5 3 2 6 -4
16 5 22 18 7 14 14 25 17 25 3 0 1 -9 -5 -20z m3651 -52 c-11 -11 -13 -10 -7
0 4 7 2 21 -5 30 -12 15 -11 15 6 0 16 -15 17 -20 6 -30z m-3691 0 c0 -6 -3
-8 -7 -5 -3 4 -16 -1 -27 -10 -21 -18 -21 -18 -2 5 21 24 36 29 36 10z m977
-4 c-3 -3 -12 -4 -19 -1 -8 3 -5 6 6 6 11 1 17 -2 13 -5z m21 -14 c-17 -10
-18 -38 -3 -73 4 -10 5 -21 1 -24 -3 -4 -6 2 -6 13 0 15 -2 16 -9 4 -6 -8 -7
-18 -5 -22 3 -5 2 -8 -3 -7 -4 1 -21 -1 -37 -6 -19 -5 -31 -4 -36 4 -5 9 -9 8
-13 -4 -4 -9 -3 -14 1 -12 4 3 16 1 26 -3 17 -6 18 -7 3 -13 -9 -3 -17 -2 -17
4 0 6 -4 8 -9 4 -10 -6 -41 32 -41 50 1 5 7 -1 15 -15 l15 -25 -5 33 c-4 24 0
42 16 64 19 26 26 29 55 25 19 -3 36 -1 39 4 4 5 12 9 18 9 7 0 4 -5 -5 -10z
m2382 1 c0 -6 -4 -13 -10 -16 -5 -3 -10 1 -10 9 0 9 5 16 10 16 6 0 10 -4 10
-9z m-2759 -18 c13 -16 12 -17 -3 -4 -10 7 -18 15 -18 17 0 8 8 3 21 -13z
m730 -10 c-12 -20 -14 -14 -5 12 4 9 9 14 11 11 3 -2 0 -13 -6 -23z m2389 23
c0 -3 -4 -8 -10 -11 -5 -3 -10 -1 -10 4 0 6 5 11 10 11 6 0 10 -2 10 -4z
m-3812 -46 c-22 -30 -35 -41 -22 -17 9 16 36 47 41 47 2 0 -6 -13 -19 -30z
m3932 -101 c0 -4 -11 -6 -25 -6 -14 0 -25 3 -25 8 0 5 7 9 16 9 11 0 9 8 -12
35 -15 20 -32 34 -38 32 -7 -3 -12 4 -12 16 0 15 11 8 48 -34 26 -30 48 -57
48 -60z m-3606 56 c15 -7 17 -5 11 6 -5 8 -4 11 1 6 10 -10 10 -12 12 -98 l2
-65 58 0 c61 0 104 -6 97 -12 -2 -3 3 -11 11 -19 10 -11 14 -31 12 -68 -1 -30
-5 -52 -7 -49 -2 2 -11 -2 -19 -9 -9 -7 -43 -12 -82 -12 l-67 0 -2 -65 c-1
-41 -8 -71 -17 -81 -12 -14 -13 -18 -2 -22 7 -2 -13 -3 -44 -1 -32 1 -62 6
-69 9 -6 4 -16 1 -21 -6 -8 -11 -9 -10 -4 3 3 10 1 20 -4 23 -6 4 -10 32 -10
63 0 68 -6 77 -45 78 -87 2 -95 4 -112 30 -21 33 -20 89 2 114 10 11 12 19 6
21 -6 2 24 4 67 4 l77 0 0 54 c0 44 5 59 27 83 24 26 33 29 65 26 21 -3 47 -9
57 -13z m590 -7 c8 -12 13 -25 10 -30 -3 -4 -1 -8 4 -8 16 0 -11 -48 -33 -60
l-20 -11 20 6 c16 5 17 4 8 -6 -10 -10 -15 -9 -27 0 -8 7 -20 10 -26 6 -6 -4
-10 -3 -9 2 2 4 -3 20 -10 34 -11 22 -10 31 3 58 20 37 57 42 80 9z m-977 -19
c-9 -6 -14 -15 -11 -21 5 -7 2 -8 -5 -4 -9 6 -8 13 5 27 9 11 20 17 23 13 3
-3 -2 -10 -12 -15z m223 -54 c0 -5 -5 -3 -10 5 -5 8 -10 20 -10 25 0 6 5 3 10
-5 5 -8 10 -19 10 -25z m910 25 c0 -5 -4 -10 -10 -10 -5 0 -10 5 -10 10 0 6 5
10 10 10 6 0 10 -4 10 -10z m2313 -5 c-3 -9 -8 -14 -10 -11 -3 3 -2 9 2 15 9
16 15 13 8 -4z m-3507 -47 c-22 -25 -34 -48 -31 -58 5 -12 4 -12 -6 -3 -9 9
-3 23 26 62 22 28 41 49 43 46 2 -2 -12 -23 -32 -47z m1554 9 c0 -5 -4 -5 -10
-2 -5 3 -10 14 -10 23 0 15 2 15 10 2 5 -8 10 -19 10 -23z m1290 12 c0 -6 -4
-7 -10 -4 -16 10 -11 -17 7 -37 9 -10 12 -18 7 -18 -16 0 -35 41 -29 61 6 19
25 17 25 -2z m-1283 -71 c-3 -7 -5 -2 -5 12 0 14 2 19 5 13 2 -7 2 -19 0 -25z
m2543 16 c0 -8 -19 -13 -24 -6 -3 5 1 9 9 9 8 0 15 -2 15 -3z m-3972 -29 c-3
-3 -9 2 -12 12 -6 14 -5 15 5 6 7 -7 10 -15 7 -18z m1190 10 c4 -5 1 -5 -5 -1
-10 5 -13 -5 -13 -38 0 -35 -5 -48 -20 -56 -18 -10 -95 -11 -85 -2 2 3 -3 18
-11 34 -15 30 -10 47 21 71 13 9 103 3 113 -8z m2846 -55 c6 -8 -3 -3 -20 12
-23 22 -33 25 -42 16 -15 -15 -16 -3 -1 23 10 19 11 19 31 -8 12 -15 26 -35
32 -43z m-849 30 c-3 -5 -12 -10 -18 -10 -7 0 -6 4 3 10 19 12 23 12 15 0z
m516 -6 c16 -8 35 -12 41 -8 7 4 8 3 4 -4 -11 -18 4 -37 16 -21 7 11 8 11 7
-1 -2 -8 3 -35 10 -59 8 -27 10 -59 5 -80 -4 -20 -7 -50 -8 -67 0 -17 -5 -31
-12 -31 -9 0 -10 7 -3 25 l9 24 -30 -26 c-60 -50 -148 -46 -208 9 -37 33 -37
34 -36 111 0 43 -3 69 -7 58 -7 -17 -8 -17 -8 -1 -1 10 7 21 16 24 9 4 25 15
35 25 10 10 26 18 36 18 11 0 13 3 5 8 -23 15 98 12 128 -4z m79 -4 c0 -5 -2
-10 -4 -10 -3 0 -8 5 -11 10 -3 6 -1 10 4 10 6 0 11 -4 11 -10z m-3988 -22
c-7 -7 -12 -8 -12 -2 0 14 12 26 19 19 2 -3 -1 -11 -7 -17z m4253 -58 c1 -17
-1 -28 -4 -24 -3 3 -6 19 -7 35 -1 17 1 28 4 25 3 -3 6 -19 7 -36z m-4311 -28
c-8 -18 -18 -32 -20 -32 -3 0 -4 3 -2 8 20 41 32 61 35 59 2 -2 -4 -18 -13
-35z m4351 8 c3 -5 1 -10 -4 -10 -6 0 -11 5 -11 10 0 6 2 10 4 10 3 0 8 -4 11
-10z m-3958 -97 c-3 -10 -5 -2 -5 17 0 19 2 27 5 18 2 -10 2 -26 0 -35z m2073
28 c0 -5 -7 -12 -16 -15 -14 -5 -15 -4 -4 9 14 17 20 19 20 6z m-616 -10 c3
-4 -4 -7 -14 -6 -27 2 -33 10 -10 12 11 1 22 -2 24 -6z m931 -39 c-3 -3 -11 0
-18 7 -9 10 -8 11 6 5 10 -3 15 -9 12 -12z m367 -7 c26 -8 56 -19 65 -25 12
-7 13 -10 3 -7 -8 2 -40 10 -70 18 -30 7 -57 16 -60 20 -3 3 -12 9 -20 13 -17
7 15 0 82 -19z m-3221 -8 c-10 -9 -11 -8 -5 6 3 10 9 15 12 12 3 -3 0 -11 -7
-18z m1342 16 c-7 -2 -19 -2 -25 0 -7 3 -2 5 12 5 14 0 19 -2 13 -5z m224 -9
c-3 -3 -12 -4 -19 -1 -8 3 -5 6 6 6 11 1 17 -2 13 -5z m2298 -24 l20 -25 -24
20 c-21 18 -24 18 -18 3 9 -25 0 -22 -14 3 -8 15 -8 19 0 15 6 -4 11 -2 11 5
0 7 1 10 3 8 1 -2 11 -15 22 -29z m633 5 c-3 -3 -9 2 -12 12 -6 14 -5 15 5 6
7 -7 10 -15 7 -18z m-4001 -17 c-3 -7 -5 -2 -5 12 0 14 2 19 5 13 2 -7 2 -19
0 -25z m2360 26 c-3 -3 -12 -4 -19 -1 -8 3 -5 6 6 6 11 1 17 -2 13 -5z m-67
-28 c0 -3 -4 -8 -10 -11 -5 -3 -10 -1 -10 4 0 6 5 11 10 11 6 0 10 -2 10 -4z
m-81 -13 c-4 -22 3 -24 20 -9 11 10 21 13 25 7 7 -11 -43 -53 -55 -45 -5 3 -9
0 -9 -5 0 -6 5 -11 11 -11 5 0 -2 -16 -17 -35 -15 -20 -29 -33 -32 -31 -2 3 3
12 12 21 9 9 13 21 10 27 -4 7 -2 8 4 4 8 -5 11 1 9 16 -1 14 3 22 11 21 14
-3 16 13 2 22 -6 4 -8 11 -5 16 7 11 15 12 14 2z m-2435 -16 c10 -7 20 -27 22
-44 3 -27 -1 -33 -31 -47 -38 -18 -52 -18 -74 3 -14 13 -17 73 -5 93 8 13 68
9 88 -5z m806 9 c0 -2 -7 -7 -16 -10 -8 -3 -12 -2 -9 4 6 10 25 14 25 6z
m-1112 -26 c-7 -10 -14 -18 -15 -16 -6 6 9 36 18 36 5 0 4 -9 -3 -20z m1072 6
c0 -2 -7 -7 -16 -10 -8 -3 -12 -2 -9 4 6 10 25 14 25 6z m2917 -2 c-3 -3 -12
-4 -19 -1 -8 3 -5 6 6 6 11 1 17 -2 13 -5z m581 -29 c-3 -30 -11 -23 -13 9 0
14 3 22 7 20 4 -3 7 -16 6 -29z m-1063 16 c3 -5 0 -13 -6 -17 -8 -5 -9 -3 -4
6 6 10 4 12 -9 7 -10 -4 -15 -3 -11 3 8 13 22 13 30 1z m-2735 -21 c0 -5 -4
-10 -10 -10 -5 0 -10 5 -10 10 0 6 5 10 10 10 6 0 10 -4 10 -10z m1010 0 c0
-5 -2 -10 -4 -10 -3 0 -8 5 -11 10 -3 6 -1 10 4 10 6 0 11 -4 11 -10z m-1800
-16 c0 -8 -5 -12 -10 -9 -6 4 -8 11 -5 16 9 14 15 11 15 -7z m965 -3 c3 -6 -5
-15 -17 -21 -21 -10 -22 -10 -5 3 14 11 15 16 5 20 -9 4 -9 6 -1 6 6 1 14 -3
18 -8z m865 -32 c15 -28 5 -23 -15 7 -9 15 -12 23 -6 20 6 -4 16 -16 21 -27z
m-1854 -8 c-1 -16 -4 -27 -8 -24 -5 2 -8 -4 -8 -13 0 -10 -3 -15 -6 -11 -5 5
14 77 20 77 2 0 3 -13 2 -29z m3654 19 c-18 -12 -30 -13 -30 -2 0 4 10 9 22 9
18 2 20 0 8 -7z m-2079 -17 c46 -15 69 -33 169 -136 128 -131 194 -173 323
-200 l67 -15 0 78 c0 44 -5 82 -10 85 -8 5 -8 11 -1 19 6 7 12 34 13 59 2 32
7 46 15 43 8 -3 10 1 6 11 -4 11 -2 14 5 9 7 -4 12 -2 12 5 0 7 3 9 6 6 4 -3
16 0 28 8 19 14 86 21 86 10 0 -3 -15 -18 -32 -34 l-33 -29 -3 -647 -2 -646
-33 -14 c-17 -7 -65 -32 -105 -54 -70 -40 -73 -41 -102 -26 -17 9 -35 13 -41
10 -5 -4 -8 -1 -7 7 2 7 -5 12 -14 12 -10 -1 -16 2 -13 5 2 4 -11 15 -30 24
-45 21 -171 141 -205 194 -15 23 -30 39 -34 36 -4 -4 -4 0 -1 9 3 8 -1 22 -9
31 -8 8 -13 16 -11 18 2 2 -3 29 -11 59 -33 128 -6 238 82 331 73 76 129 103
227 107 82 4 165 -15 200 -45 16 -15 17 -12 17 48 l0 65 -47 13 c-189 50 -354
5 -497 -137 l-68 -67 -127 6 c-130 7 -275 38 -368 79 -25 11 -50 17 -57 13 -6
-3 -8 -3 -4 2 8 8 -53 55 -71 55 -6 0 -16 9 -23 20 -7 11 -20 20 -28 20 -9 0
-63 16 -121 36 -57 19 -112 36 -121 37 -9 1 -15 4 -13 8 6 8 -76 45 -90 41 -5
-2 -7 0 -3 4 10 10 -29 37 -42 29 -5 -3 -22 1 -37 10 -26 15 -23 15 25 -1 14
-5 13 -3 -3 11 -11 9 -32 19 -48 22 -51 10 -35 18 42 20 180 5 351 63 633 214
104 56 215 110 246 120 74 23 193 24 263 2z m1705 -8 c40 -14 158 -69 261
-124 267 -141 401 -186 608 -207 56 -5 65 -8 46 -15 -20 -8 -22 -11 -10 -27
12 -15 12 -16 -2 -5 -13 10 -19 10 -35 -3 -10 -8 -12 -13 -4 -9 8 4 4 -2 -10
-13 -13 -11 -27 -19 -31 -16 -3 2 -40 -13 -80 -34 -79 -40 -140 -65 -151 -64
-18 3 -92 -30 -139 -64 -64 -45 -185 -98 -289 -126 -58 -16 -111 -21 -235 -23
l-160 -3 -64 65 c-46 45 -89 76 -149 106 -85 42 -87 42 -191 41 -86 0 -117 -4
-163 -23 l-58 -22 0 -56 c0 -30 3 -53 8 -51 143 74 255 80 365 20 50 -27 147
-124 147 -146 0 -7 8 -20 18 -29 35 -32 13 -282 -28 -332 -6 -8 -8 -20 -4 -26
4 -7 3 -9 -4 -5 -10 6 -36 -27 -37 -46 0 -4 -10 -15 -23 -23 -12 -9 -19 -21
-16 -27 4 -6 3 -8 -3 -5 -6 4 -21 -5 -33 -18 -13 -14 -20 -25 -15 -25 5 0 -2
-11 -15 -25 -15 -16 -26 -21 -30 -15 -5 8 -18 4 -41 -9 -54 -31 -163 -76 -319
-131 -223 -79 -296 -125 -277 -174 10 -25 26 -19 40 17 25 58 67 74 67 24 0
-28 -7 -38 -50 -67 -19 -14 -44 -36 -56 -49 -27 -32 -58 -24 -113 30 -52 52
-64 113 -32 166 40 64 171 139 322 183 41 12 79 26 84 30 6 4 21 11 35 15 50
15 188 86 225 115 21 17 42 30 47 30 6 0 8 6 5 14 -3 8 2 20 11 28 13 11 14
11 8 -1 -6 -9 -4 -12 5 -9 8 2 15 17 17 33 2 15 12 37 23 49 19 20 20 20 14 1
-3 -11 4 0 15 25 17 36 19 49 10 64 -6 10 -8 16 -3 13 5 -3 10 12 10 33 1 22
-2 42 -8 45 -5 4 -7 11 -4 16 20 31 -89 109 -152 109 -44 0 -109 -25 -153 -60
-21 -17 -52 -33 -69 -36 l-31 -6 0 386 c0 246 4 386 10 386 5 0 12 -11 16 -25
4 -17 13 -25 28 -26 11 0 15 -3 9 -6 -9 -3 -13 -32 -13 -92 l0 -88 51 8 c141
22 237 77 347 196 48 52 102 104 120 115 87 54 210 63 328 23z m-2340 8 c-2
-3 -6 -3 -9 -1 -3 2 -13 -4 -23 -14 -24 -21 -136 -79 -142 -73 -2 2 23 17 57
34 33 16 67 35 75 43 8 8 21 15 30 15 9 0 14 -2 12 -4z m2739 -13 c3 -6 -1 -7
-9 -4 -18 7 -21 14 -7 14 6 0 13 -4 16 -10z m30 1 c3 -5 2 -12 -3 -15 -5 -3
-9 1 -9 9 0 17 3 19 12 6z m-1805 -51 c17 -22 29 -40 27 -40 -3 0 -20 18 -37
40 -17 22 -29 40 -27 40 3 0 20 -18 37 -40z m793 -2 c-24 -26 -53 -42 -53 -28
0 5 5 10 10 10 6 0 19 9 30 20 18 18 18 25 -3 21 -5 -1 -6 3 -2 9 5 8 11 7 21
-1 13 -10 12 -15 -3 -31z m1097 -8 c8 -5 11 -10 5 -10 -5 0 -17 5 -25 10 -8 5
-10 10 -5 10 6 0 17 -5 25 -10z m551 -29 c9 -11 24 -19 34 -18 26 3 30 -50 4
-66 -10 -6 -19 -19 -20 -27 0 -10 -2 -11 -6 -2 -3 8 -28 12 -71 13 -58 1 -140
15 -104 18 6 1 12 13 12 29 0 35 24 70 53 74 41 7 82 -1 98 -21z m-471 -1 c0
-5 -5 -10 -11 -10 -5 0 -7 5 -4 10 3 6 8 10 11 10 2 0 4 -4 4 -10z m817 -47
c-3 -10 -5 -2 -5 17 0 19 2 27 5 18 2 -10 2 -26 0 -35z m-2057 33 c0 -9 -71
-48 -77 -42 -4 3 -1 6 6 6 7 0 9 5 5 12 -5 7 -2 9 7 6 8 -3 23 0 34 8 20 15
25 17 25 10z m-590 -26 c-8 -5 -19 -10 -25 -10 -5 0 -3 5 5 10 8 5 20 10 25
10 6 0 3 -5 -5 -10z m1937 -6 c-3 -3 -12 -4 -19 -1 -8 3 -5 6 6 6 11 1 17 -2
13 -5z m-1437 -19 c0 -7 -30 -13 -34 -7 -3 4 4 9 15 9 10 1 19 0 19 -2z
m-2323 -23 c-18 -4 -18 -5 -1 -23 15 -17 15 -19 2 -14 -18 7 -31 32 -23 45 3
5 13 6 23 2 16 -6 16 -7 -1 -10z m256 1 c-7 -2 -19 -2 -25 0 -7 3 -2 5 12 5
14 0 19 -2 13 -5z m-110 -10 c-13 -2 -35 -2 -50 0 -16 2 -5 4 22 4 28 0 40 -2
28 -4z m-482 -124 c-5 -13 -10 -19 -10 -12 -1 15 10 45 15 40 3 -2 0 -15 -5
-28z m-14 -51 c-3 -8 -6 -5 -6 6 -1 11 2 17 5 13 3 -3 4 -12 1 -19z m-10 -50
c-3 -7 -5 -2 -5 12 0 14 2 19 5 13 2 -7 2 -19 0 -25z m4910 -35 c-3 -10 -5 -2
-5 17 0 19 2 27 5 18 2 -10 2 -26 0 -35z m-247 15 c0 -4 -4 -8 -9 -8 -6 0 -12
4 -15 8 -3 5 1 9 9 9 8 0 15 -4 15 -9z m12 -40 c13 -14 15 -25 8 -43 -5 -14
-8 -30 -6 -37 1 -7 1 -10 -1 -6 -3 4 -17 5 -32 2 -16 -3 -39 -1 -51 6 -15 8
-20 8 -16 1 4 -6 0 -11 -9 -11 -12 0 -15 5 -10 18 4 9 11 32 15 51 5 19 14 38
22 42 19 12 60 0 80 -23z m-472 18 c0 -2 -7 -7 -16 -10 -8 -3 -12 -2 -9 4 6
10 25 14 25 6z m-3891 -30 c5 -6 11 -29 12 -50 4 -39 3 -39 -35 -43 -32 -3
-44 1 -66 22 -20 20 -29 23 -33 13 -3 -7 -6 -8 -6 -2 -1 17 39 65 63 73 24 9
51 4 65 -13z m4404 -27 c4 -16 3 -18 -9 -8 -7 6 -11 15 -8 20 8 13 11 11 17
-12z m-3903 1 c0 -5 -7 -10 -15 -10 -8 0 -15 5 -15 10 0 6 7 10 15 10 8 0 15
-4 15 -10z m-843 -57 c-3 -10 -5 -4 -5 12 0 17 2 24 5 18 2 -7 2 -21 0 -30z
m4659 -58 c10 -8 14 -15 7 -15 -6 0 -15 5 -18 10 -3 6 -14 10 -23 10 -12 0 -7
-8 16 -26 45 -36 60 -77 50 -134 -5 -25 -9 -56 -8 -69 0 -34 -8 -42 -30 -29
-15 10 -22 10 -32 0 -11 -11 -9 -12 7 -7 16 5 17 5 5 -3 -10 -8 -18 -8 -27 0
-8 6 -35 8 -64 6 -28 -3 -46 -2 -40 2 7 4 2 11 -12 19 -55 29 -74 130 -34 188
29 43 34 45 173 62 5 0 19 -6 30 -14z m-4679 -57 c-3 -8 -6 -5 -6 6 -1 11 2
17 5 13 3 -3 4 -12 1 -19z m530 7 c-13 -10 -12 -45 1 -45 11 0 8 -124 -3 -132
-6 -5 -6 -8 1 -8 6 0 29 12 50 28 73 52 130 66 153 38 18 -22 25 -81 12 -105
-14 -25 -73 -57 -125 -67 l-39 -7 46 -17 c25 -10 57 -15 70 -13 14 3 28 0 31
-6 4 -6 2 -11 -4 -11 -6 0 -2 -12 9 -26 41 -52 17 -124 -41 -124 -17 0 -52 13
-77 28 -79 48 -81 48 -81 -7 0 -95 -10 -138 -37 -150 -35 -16 -60 -14 -83 9
-17 17 -20 33 -20 105 0 47 -3 85 -7 85 -14 0 -93 -52 -89 -58 5 -8 -8 -10
-70 -14 -49 -3 -77 46 -58 101 11 31 95 80 137 81 40 0 24 17 -23 25 -22 4
-42 11 -46 16 -3 5 -12 9 -20 9 -8 0 -13 -4 -10 -9 3 -5 0 -14 -8 -20 -10 -8
-17 -6 -32 12 l-19 22 22 -18 c21 -18 31 -14 27 11 -1 6 -2 17 -3 23 0 5 -6 7
-11 4 -6 -4 -8 -11 -5 -16 11 -17 -2 -9 -21 13 -13 15 -14 18 -3 10 15 -11 16
-7 15 44 -1 66 15 84 78 84 30 0 37 -3 26 -10 -8 -5 -12 -10 -8 -10 3 0 14 -3
24 -7 11 -4 15 -3 11 4 -5 7 1 9 15 5 13 -3 26 -11 30 -18 5 -7 17 -10 28 -7
17 5 20 14 20 66 0 83 15 98 92 95 41 -2 54 -6 45 -13z m3893 -87 c0 -26 -9
-19 -15 11 -2 12 0 19 6 16 5 -4 9 -16 9 -27z m-4433 -40 c-2 -13 -4 -3 -4 22
0 25 2 35 4 23 2 -13 2 -33 0 -45z m353 52 c0 -5 -12 -10 -26 -10 -14 0 -23 4
-19 10 3 6 15 10 26 10 10 0 19 -4 19 -10z m1338 -15 c-3 -3 -9 2 -12 12 -6
14 -5 15 5 6 7 -7 10 -15 7 -18z m2263 2 c-10 -9 -11 -8 -5 6 3 10 9 15 12 12
3 -3 0 -11 -7 -18z m37 6 c-23 -28 -30 -43 -19 -43 6 0 11 7 11 15 0 27 27 28
82 3 29 -14 58 -23 64 -21 6 2 17 -4 25 -14 12 -14 12 -16 0 -8 -10 5 -12 4
-7 -4 4 -6 17 -9 29 -6 12 2 16 2 10 -1 -9 -4 -9 -11 3 -30 9 -13 12 -24 7
-24 -5 0 -14 -14 -20 -30 -6 -17 -8 -28 -3 -25 4 3 10 -4 13 -14 4 -15 0 -18
-19 -16 -21 2 -22 -1 -17 -29 10 -50 26 -59 97 -54 l62 5 -1 -101 -1 -101 -69
0 c-67 0 -69 -1 -88 -33 l-19 -33 28 -42 c16 -23 30 -44 31 -46 2 -2 6 -1 9 2
4 4 3 12 -2 20 -5 7 3 -1 18 -18 21 -23 28 -26 28 -12 0 9 4 17 9 17 10 0 -9
-61 -22 -71 -4 -3 -7 -10 -6 -15 1 -5 1 -11 -1 -14 -1 -3 -4 -16 -6 -29 -8
-43 -17 -38 -10 6 5 35 4 41 -9 37 -11 -5 -13 -2 -9 10 4 11 -17 3 -65 -24
-39 -22 -75 -40 -80 -40 -6 0 -8 -8 -5 -17 5 -14 4 -15 -4 -4 -5 7 -15 11 -20
7 -6 -4 -18 7 -27 24 -11 22 -21 30 -32 26 -12 -5 -13 -3 -5 7 8 10 7 20 -6
38 -13 20 -24 25 -47 22 -48 -6 -51 -9 -81 -62 -15 -28 -34 -51 -41 -51 -19 0
-117 42 -121 52 -7 15 -31 -4 -25 -20 4 -13 1 -12 -10 3 -9 12 -12 24 -7 29 5
5 6 14 1 20 -16 21 -21 64 -8 69 14 5 15 86 1 109 -6 10 -4 10 9 -1 10 -8 20
-11 24 -7 3 3 2 6 -4 6 -6 0 -13 9 -16 20 -4 17 -11 20 -44 15 -21 -3 -55 -7
-75 -8 -20 -2 -43 -9 -51 -15 -11 -9 -14 -8 -14 3 0 8 6 15 12 15 16 0 20 157
5 175 -15 18 50 39 97 32 20 -4 44 -2 54 4 19 9 25 39 13 52 -4 4 -8 20 -9 37
-3 38 1 35 19 -16 8 -21 15 -31 15 -20 1 10 -11 39 -26 65 -15 27 -24 55 -20
64 8 22 142 107 167 107 14 0 32 -19 58 -59 34 -53 38 -57 52 -42 8 9 12 12 8
7 -13 -16 -9 -31 3 -19 6 6 18 9 25 6 7 -3 21 2 29 11 9 9 13 16 9 16 -3 0 0
8 7 18 7 9 9 14 5 10 -9 -8 -35 20 -35 37 0 6 6 1 14 -10 15 -18 16 -18 27 13
7 18 19 32 27 32 12 0 12 -3 -1 -17z m106 -8 c-7 -17 -7 -17 -31 -8 -16 6 -15
8 7 14 14 4 26 7 27 8 1 1 0 -6 -3 -14z m-3704 -5 c0 -5 -4 -10 -10 -10 -5 0
-10 5 -10 10 0 6 5 10 10 10 6 0 10 -4 10 -10z m3447 -26 c9 -9 12 -19 7 -24
-5 -5 -14 1 -21 16 -13 28 -8 31 14 8z m86 -55 c-8 -8 -13 -7 -18 2 -5 8 -4
10 3 5 7 -4 12 -2 12 5 0 7 3 9 7 6 4 -4 2 -12 -4 -18z m-943 -20 c0 -5 -5 -7
-12 -3 -8 5 -9 1 -4 -12 5 -14 4 -16 -5 -7 -6 6 -8 16 -5 22 9 14 26 14 26 0z
m1245 -19 c3 -5 1 -10 -4 -10 -6 0 -11 5 -11 10 0 6 2 10 4 10 3 0 8 -4 11
-10z m-2808 -46 c-3 -3 -12 -4 -19 -1 -8 3 -5 6 6 6 11 1 17 -2 13 -5z m2780
-16 c-3 -8 -6 -5 -6 6 -1 11 2 17 5 13 3 -3 4 -12 1 -19z m-3467 2 c0 -5 -7
-10 -15 -10 -8 0 -15 -6 -15 -14 0 -8 -7 -17 -16 -20 -17 -6 -12 6 14 37 17
19 32 22 32 7z m725 -32 c24 -29 28 -43 27 -102 -1 -30 -39 -79 -53 -70 -5 3
-9 1 -9 -5 0 -6 -6 -8 -12 -6 -7 3 -38 6 -68 8 -52 3 -55 4 -59 32 -16 110 1
157 63 173 47 12 84 2 111 -30z m51 -18 c0 -12 -4 -16 -9 -11 -5 5 -6 14 -3
20 10 15 12 14 12 -9z m-1249 4 c-3 -3 -12 -4 -19 -1 -8 3 -5 6 6 6 11 1 17
-2 13 -5z m-37 -14 c0 -5 -4 -10 -10 -10 -5 0 -10 5 -10 10 0 6 5 10 10 10 6
0 10 -4 10 -10z m1557 -12 c-3 -8 -6 -5 -6 6 -1 11 2 17 5 13 3 -3 4 -12 1
-19z m1410 -55 c1 -24 0 -25 -6 -8 -7 17 -6 35 2 35 2 0 3 -12 4 -27z m-3190
-80 c-2 -21 -4 -6 -4 32 0 39 2 55 4 38 2 -18 2 -50 0 -70z m4703 87 c11 -7 6
-10 -20 -10 -26 0 -31 3 -20 10 8 5 17 10 20 10 3 0 12 -5 20 -10z m-2927 -30
c-3 -12 -8 -19 -11 -16 -5 6 5 36 12 36 2 0 2 -9 -1 -20z m2801 -18 c2 -4 -5
-14 -17 -22 -19 -12 -21 -11 -10 2 7 8 10 18 6 21 -3 4 -1 7 5 7 6 0 13 -4 16
-8z m-4404 -43 c0 -5 -4 -9 -8 -9 -5 0 -9 7 -9 15 0 8 4 12 9 9 4 -3 8 -9 8
-15z m2995 1 c3 -5 1 -10 -4 -10 -6 0 -11 5 -11 10 0 6 2 10 4 10 3 0 8 -4 11
-10z m1340 -8 c-3 -3 -11 0 -18 7 -9 10 -8 11 6 5 10 -3 15 -9 12 -12z m-3195
-18 c0 -2 -9 0 -20 6 -11 6 -20 13 -20 16 0 2 9 0 20 -6 11 -6 20 -13 20 -16z
m160 17 c0 -5 -9 -11 -20 -14 -11 -3 -20 -1 -20 3 0 5 8 11 18 13 9 3 18 5 20
6 1 0 2 -3 2 -8z m-57 -18 c-7 -2 -21 -2 -30 0 -10 3 -4 5 12 5 17 0 24 -2 18
-5z m441 -9 c3 -8 2 -12 -4 -9 -6 3 -10 10 -10 16 0 14 7 11 14 -7z m1323 -6
c-3 -8 -6 -5 -6 6 -1 11 2 17 5 13 3 -3 4 -12 1 -19z m-1882 -6 c-3 -3 -11 0
-18 7 -9 10 -8 11 6 5 10 -3 15 -9 12 -12z m60 8 c-3 -5 -12 -10 -18 -10 -7 0
-6 4 3 10 19 12 23 12 15 0z m3105 6 c0 -3 -4 -8 -10 -11 -5 -3 -10 -1 -10 4
0 6 5 11 10 11 6 0 10 -2 10 -4z m-1324 -18 c4 -7 3 -8 -5 -4 -6 4 -14 0 -17
-8 -3 -9 -10 -13 -16 -10 -5 3 -4 11 3 20 14 17 25 18 35 2z m-3117 -55 c1 -7
-3 -13 -9 -13 -5 0 -10 15 -9 33 0 27 2 29 9 12 5 -11 9 -26 9 -32z m1301 37
c0 -5 -7 -10 -15 -10 -8 0 -15 5 -15 10 0 6 7 10 15 10 8 0 15 -4 15 -10z
m576 -36 c4 -14 11 -21 20 -17 10 4 12 0 8 -10 -5 -13 -10 -14 -24 -5 -10 6
-16 18 -13 25 7 17 -13 17 -21 1 -3 -7 -3 -2 1 12 5 22 4 23 -10 12 -16 -14
-33 0 -22 18 9 15 55 -11 61 -36z m2741 -28 c-9 -118 -65 -204 -169 -255 -64
-32 -88 -38 -88 -21 0 14 48 108 73 144 20 28 20 28 0 18 -11 -6 -43 -32 -71
-57 -29 -26 -52 -41 -52 -33 0 24 68 115 116 154 53 44 175 124 188 124 5 0 6
-33 3 -74z m-3577 50 c0 -2 -7 -7 -16 -10 -8 -3 -12 -2 -9 4 6 10 25 14 25 6z
m3957 -18 c-3 -8 -6 -5 -6 6 -1 11 2 17 5 13 3 -3 4 -12 1 -19z m-3757 -18 c6
-11 8 -20 6 -20 -3 0 -10 9 -16 20 -6 11 -8 20 -6 20 3 0 10 -9 16 -20z m3034
-6 c3 -8 2 -12 -4 -9 -6 3 -10 10 -10 16 0 14 7 11 14 -7z m-1209 -4 c-3 -5
-12 -10 -18 -10 -7 0 -6 4 3 10 19 12 23 12 15 0z m1265 -4 c0 -2 -8 -10 -17
-17 -16 -13 -17 -12 -4 4 13 16 21 21 21 13z m-4328 -33 c-3 -16 -7 -22 -10
-15 -4 13 4 42 11 42 2 0 2 -12 -1 -27z m4960 16 c-29 -26 -472 -376 -532
-421 -205 -151 -346 -232 -437 -252 -26 -6 -30 -3 -47 34 -18 41 -33 49 -55
28 -10 -11 -11 -10 -6 2 3 9 29 21 59 28 93 22 572 268 668 344 21 16 52 56
69 89 18 33 34 57 36 55 3 -2 -1 -15 -8 -28 -24 -43 -20 -48 34 -39 4 0 7 8 7
16 0 9 6 12 15 8 10 -3 15 -1 13 7 -2 7 5 14 14 15 22 4 49 30 40 39 -3 4 2 4
12 0 12 -5 17 -2 16 7 -5 34 -1 42 15 29 9 -7 19 -10 22 -6 4 4 1 11 -7 17
-11 7 -9 8 10 7 14 -2 25 2 26 10 2 18 2 18 24 18 11 0 16 -3 12 -7z m-3808
-53 c14 -30 31 -78 37 -107 38 -179 -64 -389 -190 -389 -41 0 -61 32 -61 95 0
56 24 148 46 180 20 27 17 41 -3 23 -21 -18 -63 -30 -63 -18 0 5 5 12 10 15 6
3 10 11 10 17 0 14 -76 -77 -105 -127 -13 -22 -31 -64 -40 -92 -20 -63 -35
-60 -35 6 0 113 71 223 252 389 88 81 107 82 142 8z m785 47 c-3 -18 2 -36 7
-30 4 4 20 -3 35 -14 29 -20 38 -39 19 -39 -5 0 -9 5 -7 11 1 6 -4 14 -11 16
-8 3 -10 -1 -6 -14 5 -13 2 -12 -10 5 -10 13 -22 19 -29 15 -6 -4 -20 -8 -31
-8 -18 -2 -18 -1 2 16 26 21 29 33 5 25 -15 -5 -15 -4 1 9 22 17 27 18 25 8z
m-1029 -13 c0 -5 -4 -10 -10 -10 -5 0 -10 5 -10 10 0 6 5 10 10 10 6 0 10 -4
10 -10z m-903 -67 c-3 -10 -5 -4 -5 12 0 17 2 24 5 18 2 -7 2 -21 0 -30z m855
15 c-7 -7 -12 -8 -12 -2 0 6 3 14 7 17 3 4 9 5 12 2 2 -3 -1 -11 -7 -17z
m3398 7 c0 -18 -20 -20 -21 -2 0 9 -2 9 -6 -1 -2 -6 -9 -10 -14 -6 -14 8 0 24
22 24 10 0 19 -7 19 -15z m-2955 -4 c3 -5 0 -13 -6 -17 -7 -4 -9 -3 -5 4 3 5
0 13 -6 15 -9 4 -10 6 -1 6 6 1 14 -3 18 -8z m510 -35 c15 -23 12 -69 -4 -74
-6 -2 -7 -10 -4 -19 5 -13 2 -15 -18 -10 -13 4 -30 7 -37 7 -7 0 -24 12 -37
26 -21 22 -23 23 -18 5 3 -12 9 -21 14 -21 5 0 9 -5 9 -11 0 -5 -5 -7 -11 -3
-6 3 -15 1 -19 -5 -4 -7 -6 4 -6 23 1 19 5 38 9 42 4 4 7 18 7 30 0 18 8 25
33 32 41 11 65 5 82 -22z m-1615 20 c0 -3 -4 -8 -10 -11 -5 -3 -10 -1 -10 4 0
6 5 11 10 11 6 0 10 -2 10 -4z m150 -26 c8 -5 11 -10 5 -10 -5 0 -17 5 -25 10
-8 5 -10 10 -5 10 6 0 17 -5 25 -10z m957 -27 c-3 -10 -5 -4 -5 12 0 17 2 24
5 18 2 -7 2 -21 0 -30z m762 13 c11 -14 6 -15 -27 -7 -4 1 8 21 12 21 2 0 9
-6 15 -14z m-1672 -2 c-3 -3 -12 -4 -19 -1 -8 3 -5 6 6 6 11 1 17 -2 13 -5z
m4333 -14 c0 -5 -5 -10 -11 -10 -5 0 -7 5 -4 10 3 6 8 10 11 10 2 0 4 -4 4
-10z m-1547 -12 c9 -7 21 -27 26 -45 7 -25 6 -35 -7 -46 -27 -23 -52 -28 -75
-15 -29 15 -37 27 -37 60 0 49 53 75 93 46z m-1503 -33 c0 -5 -5 -3 -10 5 -5
8 -10 20 -10 25 0 6 5 3 10 -5 5 -8 10 -19 10 -25z m-1642 -40 c0 -16 -2 -15
-8 5 -11 34 -11 60 0 35 5 -11 8 -29 8 -40z m129 33 c-3 -8 -6 -5 -6 6 -1 11
2 17 5 13 3 -3 4 -12 1 -19z m1150 0 c-3 -8 -6 -5 -6 6 -1 11 2 17 5 13 3 -3
4 -12 1 -19z m1460 -17 c18 -27 23 -47 22 -87 -1 -29 -5 -51 -9 -49 -8 5 -24
-24 -21 -38 1 -5 -2 -6 -7 -3 -4 2 -27 -9 -51 -25 -24 -16 -48 -29 -53 -29 -5
0 -6 -5 -2 -12 4 -7 3 -8 -4 -4 -20 12 -251 -113 -305 -165 -41 -40 -48 -51
-45 -79 2 -21 12 -38 27 -48 23 -16 23 -16 16 8 -13 39 -6 83 17 107 12 13 25
23 30 23 4 0 8 -40 8 -90 0 -49 -4 -90 -9 -90 -5 0 -23 -11 -39 -25 -37 -31
-83 -50 -79 -32 1 6 -8 13 -20 15 -12 2 -27 11 -35 20 -12 16 -11 16 7 2 11
-8 6 1 -11 20 -44 49 -54 72 -54 125 0 34 -3 44 -12 39 -10 -6 -10 -4 0 7 15
16 16 33 1 23 -6 -3 -3 5 6 20 20 31 30 35 15 6 -18 -33 3 -22 38 20 34 41 42
61 16 40 -8 -8 -14 -9 -12 -4 1 5 -4 20 -11 34 l-14 25 24 -18 c42 -30 46 -30
121 19 40 26 102 63 138 82 109 58 169 95 174 109 3 7 -2 20 -11 28 -8 9 -14
17 -12 18 34 21 99 46 114 44 10 -1 30 -17 42 -36z m-2630 -8 c-3 -10 -5 -4
-5 12 0 17 2 24 5 18 2 -7 2 -21 0 -30z m2031 18 c-6 -11 -18 -17 -26 -13 -11
4 -13 1 -7 -8 5 -8 4 -11 -3 -6 -15 9 -4 36 13 30 7 -3 16 -1 20 5 3 6 8 11
11 11 2 0 -1 -9 -8 -19z m-1463 -41 c3 -5 -1 -10 -10 -10 -9 0 -13 5 -10 10 3
6 8 10 10 10 2 0 7 -4 10 -10z m1870 -30 c0 -13 -6 -25 -12 -27 -9 -3 -13 6
-13 27 0 21 4 30 13 28 6 -3 12 -15 12 -28z m-2538 -2 c-3 -8 -6 -5 -6 6 -1
11 2 17 5 13 3 -3 4 -12 1 -19z m111 -68 c-3 -50 -2 -92 2 -95 4 -2 10 -52 14
-110 4 -58 9 -113 11 -123 3 -9 -11 16 -30 57 -20 40 -34 76 -32 78 3 2 12
-12 21 -32 18 -38 26 -45 21 -17 -2 9 -7 38 -10 65 -4 31 -11 47 -21 47 -17 0
-17 -2 1 51 11 31 12 44 4 50 -9 5 -9 15 0 39 6 18 11 44 11 56 0 13 3 24 6
24 4 0 4 -41 2 -90z m2472 85 c0 -2 -6 -8 -13 -14 -10 -8 -14 -7 -14 2 0 8 6
14 14 14 7 0 13 -1 13 -2z m-2263 -34 c138 -65 248 -158 303 -254 29 -50 39
-110 21 -121 -4 -3 -30 22 -57 57 l-49 62 -7 -55 c-9 -69 -36 -199 -37 -182
-1 7 -5 11 -9 8 -21 -13 -142 62 -142 88 0 5 15 -4 33 -21 17 -18 46 -36 62
-42 25 -9 27 -9 10 2 -49 30 -120 114 -152 181 -19 39 -31 58 -28 41 4 -16 20
-57 36 -89 16 -33 27 -61 26 -63 -2 -2 -18 26 -36 61 -48 93 -83 356 -48 356
6 0 40 -13 74 -29z m2460 7 c-3 -8 -6 -5 -6 6 -1 11 2 17 5 13 3 -3 4 -12 1
-19z m-1500 -40 c-2 -13 -4 -5 -4 17 -1 22 1 32 4 23 2 -10 2 -28 0 -40z
m-1197 5 c-11 -17 -11 -17 -6 0 3 10 6 24 7 30 0 9 2 9 5 0 3 -7 0 -20 -6 -30z
m3045 27 c-3 -5 -12 -10 -18 -10 -7 0 -6 4 3 10 19 12 23 12 15 0z m-3090 -94
c13 -43 20 -55 27 -45 7 11 8 9 4 -4 -3 -10 -6 -28 -6 -40 -1 -26 -22 28 -44
112 -19 71 -4 53 19 -23z m18 44 c-7 -28 -13 -25 -13 6 0 14 4 23 9 20 5 -3 7
-15 4 -26z m14 -22 c-3 -8 -6 -5 -6 6 -1 11 2 17 5 13 3 -3 4 -12 1 -19z
m4063 18 c0 -2 -11 -11 -25 -20 -14 -9 -25 -13 -25 -8 0 5 10 14 23 20 27 13
27 13 27 8z m-2804 -61 c-8 -8 -18 -15 -22 -15 -3 0 -1 7 6 15 7 8 17 15 22
15 5 0 3 -7 -6 -15z m184 5 c0 -5 11 -12 25 -16 14 -3 23 -10 20 -14 -3 -4 1
-13 9 -19 11 -9 15 -9 18 1 3 8 7 6 11 -6 4 -10 3 -15 -3 -11 -7 4 -10 -19 -8
-67 2 -57 0 -73 -11 -73 -7 0 -20 -10 -28 -22 -14 -21 -14 -23 8 -32 21 -9 19
-10 -16 -10 -22 1 -34 3 -27 6 6 2 12 9 12 13 0 5 -16 2 -35 -6 -19 -7 -58
-14 -87 -14 -44 -1 -124 -14 -187 -31 -24 -7 -24 21 1 30 21 9 21 10 3 11
l-20 1 20 9 c11 5 27 9 35 9 9 0 8 -4 -5 -9 l-20 -9 20 -1 20 -1 -20 -9 c-18
-8 -18 -9 5 -8 28 0 83 15 61 17 -11 1 -11 4 0 17 7 8 21 13 31 10 16 -4 17
-2 7 10 -7 8 -19 12 -28 9 -13 -5 -14 -4 -3 6 14 15 17 33 4 25 -5 -3 -8 21
-8 53 1 33 -1 58 -4 56 -3 -2 -7 6 -7 18 -2 17 0 19 7 7 9 -14 14 -7 11 13 0
4 6 7 15 7 9 0 12 5 8 13 -4 6 -4 9 0 5 4 -3 22 0 39 7 37 16 127 20 127 5z
m74 -1 c-7 -11 -51 -12 -58 -1 -2 4 11 8 30 9 18 0 31 -3 28 -8z m2456 7 c0
-7 -133 -76 -137 -72 -3 2 125 75 135 76 1 0 2 -2 2 -4z m-1919 -31 c3 2 5 -5
6 -15 1 -11 -3 -20 -8 -20 -6 0 -7 5 -3 11 4 7 1 10 -7 7 -8 -3 -13 -11 -11
-17 1 -7 -1 -10 -6 -7 -7 4 -8 30 -3 55 1 2 7 -2 14 -8 8 -6 16 -9 18 -6z
m599 -5 c0 -5 -5 -10 -11 -10 -5 0 -7 5 -4 10 3 6 8 10 11 10 2 0 4 -4 4 -10z
m830 -5 c18 -21 35 -19 19 3 -11 14 -11 15 1 5 19 -17 25 -126 9 -155 -7 -13
-12 -30 -11 -38 1 -9 -1 -10 -4 -3 -4 9 -13 9 -30 2 -41 -15 -71 -10 -103 17
-17 14 -39 27 -48 29 -10 2 -19 4 -21 4 -2 1 0 6 3 11 4 7 11 8 18 1 9 -7 12
6 12 47 0 32 -4 63 -8 70 -5 6 -4 12 2 12 5 0 11 -5 13 -11 2 -6 14 -5 33 5
38 20 99 20 115 1z m-2260 -40 c0 -2 -9 -3 -19 -2 -11 0 -18 5 -15 9 4 6 34 0
34 -7z m2577 -11 c-20 -11 -32 -12 -45 -4 -14 9 -13 10 7 4 13 -3 21 -2 18 2
-3 5 7 10 21 11 l27 1 -28 -14z m-1246 -3 c-9 -6 -10 -11 -2 -15 6 -4 16 -4
23 0 6 4 8 3 5 -3 -4 -6 5 -21 19 -34 60 -55 86 -155 54 -204 -10 -15 -16 -35
-13 -44 4 -13 3 -13 -5 -2 -7 9 -12 10 -16 2 -11 -17 -100 -71 -209 -126 -54
-28 -117 -66 -140 -86 -36 -31 -42 -42 -49 -95 -4 -32 -9 -64 -10 -71 -1 -7
-5 -10 -9 -8 -4 3 -9 -2 -13 -10 -9 -25 10 -17 66 28 29 24 86 65 126 91 39
26 72 51 72 56 0 4 -7 13 -15 20 -27 22 -16 44 36 74 29 16 49 24 45 17 -8
-12 42 -83 53 -76 11 6 1 -108 -10 -119 -11 -12 -12 -29 -1 -22 4 2 8 -4 8
-15 0 -12 -4 -15 -10 -9 -13 13 -22 13 -38 -3 -7 -6 -38 -25 -68 -41 -143 -76
-177 -117 -160 -192 11 -49 32 -87 43 -79 4 3 3 0 -3 -7 -7 -9 -16 -9 -36 1
-19 8 -30 9 -38 1 -13 -13 -26 -13 -26 0 0 6 7 10 17 10 14 0 14 2 -2 20 -14
16 -20 17 -27 8 -6 -10 -8 -10 -9 2 -1 8 -1 19 0 23 1 5 -9 6 -21 2 -19 -5
-20 -4 -6 5 13 8 15 16 8 35 -5 13 -11 60 -14 104 -4 64 -2 80 10 85 12 5 9
11 -13 30 -20 17 -30 21 -36 13 -6 -8 -7 -6 -3 6 6 19 -3 49 -13 43 -4 -3 -8
19 -9 48 -4 91 56 149 263 256 146 76 164 105 96 160 -56 43 -55 72 2 98 63
30 111 44 78 23z m759 -11 c0 -5 -4 -10 -10 -10 -5 0 -10 5 -10 10 0 6 5 10
10 10 6 0 10 -4 10 -10z m-686 -35 c3 -8 1 -15 -4 -15 -6 0 -10 7 -10 15 0 8
2 15 4 15 2 0 6 -7 10 -15z m1071 8 c-11 -3 -26 -10 -32 -15 -9 -7 -13 -7 -13
0 0 13 18 21 45 20 l20 0 -20 -5z m-2552 -58 c-22 -19 -25 -27 -14 -34 9 -6
10 -11 2 -15 -6 -4 -11 -2 -11 4 0 7 -5 6 -14 -2 -15 -14 -11 -32 5 -23 5 3 6
-1 3 -9 -5 -12 -8 -12 -25 2 -19 16 -19 17 3 39 13 12 34 36 48 53 14 17 26
26 28 21 2 -6 -9 -22 -25 -36z m87 31 c0 -3 -4 -8 -10 -11 -5 -3 -10 -1 -10 4
0 6 5 11 10 11 6 0 10 -2 10 -4z m-2 -61 c-3 -3 -9 2 -12 12 -6 14 -5 15 5 6
7 -7 10 -15 7 -18z m2529 19 c-3 -3 -12 -4 -19 -1 -8 3 -5 6 6 6 11 1 17 -2
13 -5z m-404 -17 c3 -7 -3 -13 -14 -13 -13 0 -15 3 -7 13 6 7 12 13 13 13 2 0
5 -6 8 -13z m-893 -62 c0 -13 -4 -27 -10 -30 -6 -4 -10 8 -10 30 0 22 4 34 10
30 6 -3 10 -17 10 -30z m1663 14 c-8 -8 -16 -8 -30 0 -16 9 -14 10 12 11 21 0
26 -3 18 -11z m-112 -40 c-27 -6 -45 0 -23 8 10 4 8 9 -5 19 -11 9 -3 7 18 -3
l37 -18 -27 -6z m87 26 c4 -3 -117 -90 -131 -93 -6 -2 -1 6 13 18 l25 21 -25
-6 -25 -6 25 15 c14 8 33 13 42 10 10 -3 21 3 28 16 9 17 8 20 -12 20 -18 0
-20 2 -8 10 12 7 56 4 68 -5z m-133 -18 c0 -20 -18 -24 -23 -5 -2 9 0 8 7 -2
9 -13 11 -13 11 2 0 9 -5 19 -10 21 -6 3 -5 4 2 3 7 -2 13 -10 13 -19z m-3017
-38 c43 -26 98 -82 117 -120 45 -86 22 -217 -51 -286 -59 -57 -105 -76 -184
-76 -293 0 -359 396 -83 499 53 20 154 11 201 -17z m2252 -23 c22 -14 40 -31
40 -37 0 -5 5 -7 12 -3 7 4 8 3 4 -4 -4 -6 -1 -24 7 -38 22 -43 -2 -130 -47
-166 -11 -10 -16 -18 -9 -18 6 0 20 11 31 25 18 23 21 23 33 8 11 -13 11 -15
1 -9 -8 5 -21 1 -34 -11 -11 -10 -30 -19 -42 -20 -11 -1 -44 -5 -72 -9 -40 -5
-60 -2 -97 15 -25 11 -49 26 -53 33 -5 7 -2 9 7 4 8 -4 5 0 -5 8 -23 19 -27
34 -28 98 0 63 26 107 82 136 57 29 114 25 170 -12z m-210 20 c0 -3 -4 -8 -10
-11 -5 -3 -10 -1 -10 4 0 6 5 11 10 11 6 0 10 -2 10 -4z m-1363 -98 c32 -12
65 -34 88 -59 37 -41 40 -56 14 -71 -23 -13 -109 -48 -113 -45 -2 1 -13 -6
-24 -16 -12 -11 -26 -16 -34 -11 -7 4 -10 4 -6 -1 12 -13 -28 -36 -48 -28 -12
4 -15 3 -10 -5 5 -8 1 -10 -10 -5 -13 5 -16 2 -12 -9 5 -11 -6 -20 -35 -32
-23 -9 -50 -21 -59 -27 -10 -5 -43 -9 -73 -9 -47 0 -66 5 -104 27 -6 4 37 44
98 92 70 54 132 86 213 107 107 29 93 36 -57 31 -77 -3 -147 -7 -155 -10 -72
-20 -73 -20 -92 3 -29 36 -22 46 43 64 137 39 279 40 376 4z m2223 12 c0 -5 7
-7 15 -4 8 4 15 4 15 1 0 -13 -30 -14 -40 -1 -9 10 -9 14 -1 14 6 0 11 -4 11
-10z m-1260 -20 c0 -5 -4 -10 -10 -10 -5 0 -10 5 -10 10 0 6 5 10 10 10 6 0
10 -4 10 -10z m-455 -10 c-3 -5 -12 -10 -18 -10 -7 0 -6 4 3 10 19 12 23 12
15 0z m8 -25 c31 4 32 8 -12 -45 -2 -3 -1 3 2 12 4 11 2 15 -6 12 -7 -2 -18 6
-26 18 -12 20 -12 21 0 12 8 -7 27 -11 42 -9z m777 -32 c-11 -17 -11 -17 -6 0
3 10 7 26 7 35 1 15 2 15 6 0 2 -10 -1 -25 -7 -35z m-365 -14 c11 -17 -1 -21
-15 -4 -8 9 -8 15 -2 15 6 0 14 -5 17 -11z m1070 -19 c3 -5 1 -10 -4 -10 -6 0
-11 5 -11 10 0 6 2 10 4 10 3 0 8 -4 11 -10z m-3175 -10 c20 -5 45 -16 55 -24
18 -13 11 -14 -60 -14 -64 1 -93 -4 -144 -25 -36 -14 -68 -24 -73 -21 -14 9
-9 30 11 48 44 40 139 56 211 36z m2838 -25 c-3 -3 -9 2 -12 12 -6 14 -5 15 5
6 7 -7 10 -15 7 -18z m406 -24 c4 -5 -3 -7 -14 -4 -23 6 -26 13 -6 13 8 0 17
-4 20 -9z m-1414 -54 c0 -18 -9 -45 -20 -62 l-20 -30 0 48 c0 52 15 91 31 82
5 -4 9 -21 9 -38z m710 33 c8 -5 11 -10 5 -10 -5 0 -17 5 -25 10 -8 5 -10 10
-5 10 6 0 17 -5 25 -10z m748 -25 c-2 -1 -12 -7 -24 -13 -16 -8 -21 -8 -21 3
0 7 7 11 15 7 10 -3 13 -1 8 6 -5 8 -2 10 9 6 9 -4 15 -8 13 -9z m-1128 -25
c0 -11 -4 -20 -10 -20 -5 0 -10 9 -10 20 0 11 5 20 10 20 6 0 10 -9 10 -20z
m-850 -4 c0 -2 -8 -10 -17 -17 -16 -13 -17 -12 -4 4 13 16 21 21 21 13z m2678
-42 c-163 -229 -428 -474 -683 -632 -206 -128 -477 -242 -730 -307 -215 -56
-587 -96 -721 -79 l-59 7 146 28 c460 86 969 271 1326 480 199 117 490 327
678 488 39 33 71 60 73 60 2 1 -12 -20 -30 -45z m-3997 26 c25 0 79 -55 79
-79 0 -27 -47 -51 -98 -51 -34 0 -45 6 -81 45 -22 24 -41 48 -41 53 0 19 71
43 105 36 11 -2 27 -4 36 -4z m1672 -25 c-3 -9 -8 -14 -10 -11 -3 3 -2 9 2 15
9 16 15 13 8 -4z m-439 -27 c-17 -19 -17 -21 -1 -15 23 9 22 0 -2 -13 -15 -7
-19 -7 -17 4 2 15 25 46 34 46 3 0 -3 -10 -14 -22z m871 -8 c3 -5 1 -10 -4
-10 -6 0 -11 5 -11 10 0 6 2 10 4 10 3 0 8 -4 11 -10z m-926 -36 c-13 -14 -38
-34 -56 -45 -18 -12 -31 -24 -28 -29 3 -4 -4 -6 -14 -3 -13 3 -24 -2 -33 -16
-7 -12 -20 -21 -30 -21 -23 0 -33 -19 -18 -33 10 -9 11 -9 6 1 -4 7 0 15 11
19 10 3 28 15 41 26 17 16 22 17 22 5 0 -8 -11 -20 -24 -26 -22 -10 -23 -13
-13 -51 9 -31 14 -38 24 -29 7 5 11 14 8 18 -3 5 0 12 6 16 8 5 9 3 4 -6 -6
-9 0 -10 26 -4 19 4 45 8 59 8 14 0 40 -4 59 -8 27 -7 32 -5 26 5 -5 8 -4 11
1 6 5 -5 9 -12 9 -15 1 -22 17 -32 37 -21 15 8 19 8 13 0 -4 -7 -1 -19 7 -28
11 -14 11 -16 -1 -8 -11 6 -13 4 -7 -11 45 -115 -22 -224 -136 -224 -55 0 -91
16 -128 55 -20 21 -26 40 -30 97 -3 38 -2 72 3 75 4 3 3 11 -4 19 -9 11 -8 18
1 29 19 23 -3 43 -26 24 -15 -12 -17 -12 -12 1 3 8 -2 20 -11 27 -9 6 -14 13
-11 15 9 7 104 62 132 76 15 8 44 29 65 48 45 40 56 44 22 8z m891 6 c0 -5 -7
-7 -15 -4 -8 4 -15 8 -15 10 0 2 7 4 15 4 8 0 15 -4 15 -10z m-1344 -63 c105
-81 152 -172 161 -307 3 -49 3 -90 0 -90 -9 0 -53 84 -81 153 -40 99 -85 196
-112 238 -29 47 -22 49 32 6z m-172 -101 c104 -43 214 -263 232 -467 8 -83 7
-83 -85 -33 -161 90 -222 148 -262 255 -26 68 -28 178 -4 215 27 42 66 52 119
30z m816 -16 c0 -5 -4 -10 -10 -10 -5 0 -10 5 -10 10 0 6 5 10 10 10 6 0 10
-4 10 -10z m-79 -23 c-10 -9 -11 -8 -5 6 3 10 9 15 12 12 3 -3 0 -11 -7 -18z
m469 -37 c0 -5 -5 -10 -11 -10 -5 0 -7 5 -4 10 3 6 8 10 11 10 2 0 4 -4 4 -10z
m-410 -40 c0 -5 -4 -10 -10 -10 -5 0 -10 5 -10 10 0 6 5 10 10 10 6 0 10 -4
10 -10z m524 -38 c2 -4 -4 -8 -14 -8 -10 0 -16 4 -14 8 3 4 9 8 14 8 5 0 11
-4 14 -8z m16 -42 c0 -5 -7 -10 -15 -10 -8 0 -15 5 -15 10 0 6 7 10 15 10 8 0
15 -4 15 -10z m-841 -93 c8 -10 7 -14 -2 -14 -8 0 -14 6 -14 14 0 7 1 13 2 13
2 0 8 -6 14 -13z m261 -29 c0 -6 -11 -7 -24 -4 -18 4 -28 1 -35 -11 -5 -10
-13 -14 -17 -10 -10 10 28 38 45 32 9 -4 11 0 7 11 -5 14 -4 15 9 4 8 -7 15
-17 15 -22z m-413 -50 c-3 -8 -6 -5 -6 6 -1 11 2 17 5 13 3 -3 4 -12 1 -19z
m53 -63 c0 -2 -6 -5 -13 -8 -8 -3 -14 1 -14 8 0 7 6 11 14 8 7 -3 13 -6 13 -8z"/>
<path d="M3870 4854 c-32 -11 -60 -28 -60 -36 0 -5 4 -7 8 -4 4 2 9 -4 9 -15
2 -17 0 -18 -13 -4 -20 20 -21 20 -40 -17 -21 -41 -26 -92 -12 -127 6 -14 12
-30 14 -36 10 -40 72 -164 79 -157 4 4 5 2 1 -5 -10 -18 27 -80 46 -77 11 1
16 -5 15 -17 -1 -10 -5 -19 -9 -19 -4 0 -8 -4 -8 -9 0 -10 61 17 71 31 3 5 10
8 15 7 17 -4 44 13 37 24 -3 6 -1 7 5 3 18 -11 37 4 21 16 -10 6 -7 7 10 3 27
-8 104 23 94 38 -3 6 -1 7 5 3 7 -4 29 5 49 19 21 14 32 25 25 25 -6 0 -12 5
-12 10 0 14 27 13 32 -1 2 -7 10 -4 18 7 8 10 10 15 3 11 -6 -4 -18 -4 -27 -1
-12 5 -13 9 -3 19 9 9 14 10 20 1 5 -8 10 -7 17 4 9 13 10 13 10 0 1 -12 2
-12 10 2 7 11 7 25 0 42 -6 17 -6 26 0 26 6 0 10 -4 10 -10 0 -5 5 -10 11 -10
18 0 4 65 -21 100 -27 38 -84 63 -125 55 -52 -11 -94 -28 -89 -37 13 -21 -18
-5 -32 17 -20 30 -31 32 -39 4 -4 -11 -9 -18 -12 -15 -3 3 1 16 10 30 17 25
12 32 -53 82 -19 14 -70 24 -90 18z m440 -194 c0 -5 -2 -10 -4 -10 -3 0 -8 5
-11 10 -3 6 -1 10 4 10 6 0 11 -4 11 -10z"/>
<path d="M1955 4821 c-3 -5 -2 -12 3 -15 5 -3 9 1 9 9 0 17 -3 19 -12 6z"/>
<path d="M1782 4767 c-12 -13 -22 -27 -22 -33 1 -5 10 2 20 15 11 13 20 19 20
14 0 -6 -9 -18 -19 -27 -10 -10 -18 -25 -16 -34 2 -9 4 -21 4 -25 1 -5 6 -5
12 -1 8 4 7 9 -2 16 -11 7 -10 8 3 6 10 -2 28 9 40 24 l23 27 17 -24 c17 -23
17 -24 -1 -22 -11 0 -19 4 -19 7 2 20 -4 21 -18 2 -8 -12 -12 -27 -9 -32 3 -6
0 -10 -7 -11 -7 -1 -2 -5 12 -10 23 -8 22 -8 -7 -5 -18 1 -33 1 -33 -1 0 -9
53 -22 63 -16 7 4 18 8 25 9 19 3 43 25 37 34 -3 5 -1 12 5 15 8 5 8 11 0 20
-7 8 -9 18 -6 23 3 5 -4 18 -16 28 -15 13 -19 14 -14 4 4 -9 2 -8 -7 3 -20 24
-59 21 -85 -6z m114 -42 c6 -11 7 -25 2 -31 -4 -6 -5 -14 -1 -17 9 -10 -10 -8
-26 2 -11 7 -9 10 9 16 12 4 19 10 14 14 -5 3 -15 14 -23 24 -12 15 -12 18 0
15 7 -2 18 -12 25 -23z"/>
<path d="M3409 4033 c-13 -16 -12 -17 4 -4 16 13 21 21 13 21 -2 0 -10 -8 -17
-17z"/>
<path d="M2491 3140 c-38 -9 -86 -54 -102 -97 -20 -52 -13 -134 16 -201 20
-44 32 -61 42 -58 8 4 11 1 7 -5 -8 -14 28 -52 103 -106 36 -25 68 -41 74 -37
8 4 9 3 5 -4 -4 -7 -1 -12 8 -12 9 0 16 -4 16 -8 0 -12 50 -33 61 -26 5 3 6
10 3 16 -4 6 0 14 7 19 11 7 11 14 2 40 -7 18 -10 35 -8 39 10 16 16 351 6
345 -6 -3 -9 0 -6 8 7 17 -68 71 -120 86 -45 12 -65 12 -114 1z m-27 -326 c3
-8 2 -12 -4 -9 -6 3 -10 10 -10 16 0 14 7 11 14 -7z"/>
<path d="M3374 2575 c-10 -8 -14 -15 -8 -15 6 0 17 7 24 15 16 19 9 19 -16 0z"/>
<path d="M4980 3790 c0 -11 4 -20 8 -20 4 0 8 9 8 20 0 11 -4 20 -8 20 -4 0
-8 -9 -8 -20z"/>
<path d="M754 3085 c11 -8 27 -15 35 -15 9 0 3 7 -13 15 -36 19 -47 19 -22 0z"/>
<path d="M4219 2902 c-59 -39 -79 -76 -79 -146 0 -48 27 -96 73 -130 40 -29
120 -28 170 3 20 12 37 28 37 34 0 7 -4 6 -10 -3 -5 -8 -10 -10 -10 -4 0 7 9
22 21 35 18 21 20 22 14 4 -5 -16 -3 -17 6 -8 6 6 14 34 17 62 4 42 0 57 -24
95 -15 24 -43 51 -61 60 -45 21 -121 20 -154 -2z m228 -164 c-3 -7 -5 -2 -5
12 0 14 2 19 5 13 2 -7 2 -19 0 -25z m-20 -10 c-3 -8 -6 -5 -6 6 -1 11 2 17 5
13 3 -3 4 -12 1 -19z"/>
<path d="M4036 2601 c-4 -6 -2 -11 5 -11 8 0 8 -4 -1 -15 -7 -9 -10 -18 -7
-21 3 -3 11 4 17 16 13 23 -1 52 -14 31z"/>
<path d="M4604 2498 c-4 -6 -2 -14 4 -16 7 -2 10 -8 7 -13 -4 -5 1 -6 9 -3 12
5 13 11 5 25 -11 22 -15 23 -25 7z"/>
<path d="M1700 2780 c0 -5 5 -10 11 -10 5 0 7 5 4 10 -3 6 -8 10 -11 10 -2 0
-4 -4 -4 -10z"/>
<path d="M1688 1923 c7 -3 16 -2 19 1 4 3 -2 6 -13 5 -11 0 -14 -3 -6 -6z"/>
<path d="M2737 1393 c-4 -3 -7 -11 -7 -17 0 -6 5 -5 12 2 6 6 9 14 7 17 -3 3
-9 2 -12 -2z"/>
<path d="M1320 1748 c-68 -46 -77 -123 -20 -180 23 -23 37 -28 74 -28 102 0
156 116 89 190 -40 42 -96 50 -143 18z"/>
<path d="M1920 1529 c0 -5 5 -7 10 -4 6 3 10 8 10 11 0 2 -4 4 -10 4 -5 0 -10
-5 -10 -11z"/>
<path d="M1898 1473 c7 -3 16 -2 19 1 4 3 -2 6 -13 5 -11 0 -14 -3 -6 -6z"/>
<path d="M5390 1278 c-25 -5 -49 -14 -54 -19 -6 -5 -18 -9 -29 -9 -11 0 -15
-4 -11 -12 5 -7 3 -8 -5 -4 -7 5 -20 1 -29 -7 -17 -15 -21 -17 -43 -17 -5 0
-8 -4 -5 -8 3 -5 0 -9 -7 -9 -21 0 -67 -35 -60 -46 4 -6 1 -7 -6 -2 -13 7 -83
-60 -73 -70 3 -3 -2 -5 -12 -5 -9 0 -14 -4 -11 -10 3 -5 2 -10 -4 -10 -12 0
-71 -83 -71 -100 0 -6 4 -9 9 -6 5 4 8 -5 6 -19 -3 -34 -7 -36 -25 -17 -13 14
-12 15 4 9 11 -5 16 -3 14 5 -8 24 -26 18 -38 -14 -7 -18 -21 -51 -30 -73 -10
-22 -21 -54 -24 -72 -7 -28 -5 -31 13 -26 14 4 21 1 21 -9 0 -24 -11 -28 -34
-13 -24 18 -105 20 -155 4 -74 -24 -174 -79 -142 -79 5 0 13 5 16 10 3 6 11
10 16 10 6 0 7 -5 3 -12 -4 -7 -3 -8 4 -4 6 4 21 2 33 -5 17 -9 20 -8 14 2 -6
9 -2 10 16 5 13 -4 34 -7 46 -7 11 0 24 -6 27 -15 3 -9 2 -12 -5 -9 -5 4 -21
4 -35 1 -20 -5 -22 -9 -12 -20 11 -11 19 -11 53 1 21 7 73 16 114 19 60 5 78
11 92 28 l18 21 1 -25 c1 -23 2 -23 10 -5 l9 20 1 -20 c1 -12 6 -5 12 18 6 20
14 37 19 37 5 0 9 7 9 15 0 8 -4 15 -10 15 -5 0 -10 7 -10 15 0 18 16 20 24 3
3 -7 4 0 1 16 -5 23 -3 27 9 23 13 -5 16 1 16 27 0 42 9 66 23 66 7 0 7 -4 -1
-12 -7 -7 -12 -21 -12 -32 0 -17 3 -16 15 8 9 16 13 37 10 48 -7 20 10 25 19
6 3 -7 4 1 0 17 -4 24 -3 28 7 18 10 -10 16 -9 31 4 17 16 17 17 1 36 -17 19
-17 20 3 9 17 -9 24 -9 33 2 6 7 9 15 6 18 -3 3 1 11 10 18 13 11 14 10 9 -5
-6 -15 -5 -16 15 -4 11 8 21 17 21 20 0 12 104 56 158 68 75 16 189 14 253 -5
57 -16 119 -44 119 -55 0 -3 11 -11 24 -17 l24 -10 1 102 2 102 -43 22 c-24
11 -61 26 -83 33 -22 6 -50 15 -63 20 -30 12 -215 10 -272 -3z m420 -77 c0 -5
-9 -11 -20 -14 -12 -3 -18 -1 -14 5 5 7 -3 9 -22 5 l-29 -6 28 13 c15 6 24 16
20 20 -5 5 2 3 15 -3 12 -6 22 -16 22 -20z m-671 -75 c11 -14 6 -15 -27 -7 -4
1 8 21 12 21 2 0 9 -6 15 -14z m-75 -95 c-8 -8 -43 -8 -38 0 2 4 13 7 24 6 10
-1 17 -3 14 -6z m-147 -253 c-3 -8 -6 -5 -6 6 -1 11 2 17 5 13 3 -3 4 -12 1
-19z m100 -100 c-3 -8 -6 -5 -6 6 -1 11 2 17 5 13 3 -3 4 -12 1 -19z m-357 -2
c0 -2 -7 -7 -16 -10 -8 -3 -12 -2 -9 4 6 10 25 14 25 6z m55 -6 c3 -5 -3 -10
-14 -10 -10 0 -28 -3 -38 -6 -16 -6 -16 -5 2 9 23 19 41 21 50 7z m145 0 c0
-5 -23 -10 -52 -10 -30 0 -48 4 -41 8 20 12 93 14 93 2z m-113 -66 c-3 -3 -12
-4 -19 -1 -8 3 -5 6 6 6 11 1 17 -2 13 -5z"/>
<path d="M355 1086 c-44 -17 -60 -28 -60 -42 0 -11 -8 -20 -20 -23 -11 -2 -24
-8 -28 -15 -6 -7 -7 -4 -3 7 7 24 -7 21 -30 -5 -17 -19 -17 -21 -1 -15 9 4 17
2 17 -4 0 -5 -12 -8 -27 -7 -22 2 -34 -6 -65 -47 -28 -37 -34 -51 -23 -53 13
-3 12 -7 -1 -28 -9 -13 -14 -31 -10 -39 4 -11 2 -14 -6 -9 -8 5 -9 1 -4 -11 7
-18 6 -18 -13 -1 -19 17 -20 17 -23 -11 -2 -22 -9 -29 -30 -31 l-28 -3 0 -123
0 -123 75 1 c67 0 74 2 58 15 -17 13 -17 13 0 7 10 -3 23 -6 29 -6 6 0 8 -7 4
-15 -3 -8 -2 -15 3 -15 5 0 11 45 13 101 3 66 9 104 18 109 7 4 14 20 16 35 2
18 20 44 51 73 26 24 40 41 30 38 -11 -4 -16 -2 -12 5 4 6 14 8 22 5 8 -3 26
3 41 13 15 10 62 27 105 37 66 14 84 15 113 5 19 -7 49 -10 67 -7 21 4 26 3
13 -2 -19 -8 -19 -9 -1 -16 11 -4 22 -1 28 6 6 9 7 8 3 -4 -6 -20 27 -43 47
-32 6 4 9 4 5 -1 -4 -4 8 -25 27 -47 40 -44 81 -126 89 -178 3 -19 8 -52 12
-72 4 -25 2 -38 -5 -38 -6 0 -11 -5 -11 -11 0 -8 4 -8 14 1 8 6 46 15 83 19
77 8 166 -7 228 -38 28 -14 44 -16 53 -9 16 14 16 -4 0 -21 -11 -11 -8 -12 12
-7 14 3 19 3 13 0 -19 -8 -16 -24 5 -22 37 3 52 -3 52 -19 0 -13 3 -14 11 -6
13 13 -2 34 -31 46 -8 3 -1 5 15 4 l30 -2 -1 60 c0 33 1 52 3 43 3 -10 11 -18
19 -18 8 0 14 -4 14 -10 0 -5 5 -10 11 -10 8 0 8 4 1 13 -6 6 -10 16 -10 20
-1 14 -59 77 -71 77 -7 0 -10 4 -7 8 7 13 -141 88 -189 97 -72 12 -80 12 -88
-4 -5 -11 -6 -9 -3 7 2 12 -2 28 -9 36 -8 7 -11 16 -8 20 8 8 -27 86 -39 86
-4 0 -8 6 -8 14 0 17 -69 96 -84 96 -6 0 -4 -6 5 -13 13 -10 14 -14 3 -25 -8
-7 -15 -8 -19 -2 -3 6 -1 10 6 10 10 0 10 3 2 11 -6 6 -10 17 -7 23 6 16 -63
59 -72 44 -5 -7 -3 -8 6 -3 10 6 12 4 7 -9 -4 -10 -7 -20 -7 -22 0 -2 -5 -4
-10 -4 -6 0 -8 11 -6 23 6 35 -7 50 -35 42 -17 -4 -20 -3 -10 3 26 19 -89 42
-201 41 -80 -1 -116 -6 -163 -23z m-25 -40 c-7 -7 -13 -7 -20 0 -6 6 -3 10 10
10 13 0 16 -4 10 -10z m-145 -86 c-3 -5 -2 -10 3 -10 6 0 8 -9 5 -20 -8 -29
-19 -24 -17 8 3 33 3 32 10 32 3 0 2 -4 -1 -10z m699 -24 c-6 -15 29 -40 40
-29 3 3 6 1 6 -5 0 -15 -30 -43 -40 -37 -12 7 -23 62 -15 75 9 15 15 12 9 -4z
m-738 -34 c-10 -11 -16 -12 -16 -4 0 7 5 12 10 12 6 0 10 8 11 18 0 11 2 13 6
4 3 -8 -2 -21 -11 -30z m814 -61 c0 -9 4 -21 10 -27 5 -5 5 -15 1 -22 -6 -10
-11 -3 -16 20 -7 32 -7 32 -15 8 l-7 -25 -8 27 c-10 39 0 64 20 48 8 -7 15
-20 15 -29z m-126 -97 c3 -8 2 -12 -4 -9 -6 3 -10 10 -10 16 0 14 7 11 14 -7z
m286 -36 c0 -4 -15 -8 -32 -8 -20 0 -28 3 -21 8 16 10 53 10 53 0z m-104 -25
c-10 -10 -19 5 -10 18 6 11 8 11 12 0 2 -7 1 -15 -2 -18z m-849 -30 c-3 -10
-5 -4 -5 12 0 17 2 24 5 18 2 -7 2 -21 0 -30z m1062 9 c19 -9 34 -21 34 -27 1
-5 9 -19 19 -29 27 -29 14 -31 -15 -2 -14 14 -20 27 -14 29 6 2 -8 11 -31 20
-23 9 -42 19 -42 22 0 8 13 5 49 -13z m-1082 -64 c-3 -8 -6 -5 -6 6 -1 11 2
17 5 13 3 -3 4 -12 1 -19z m19 -54 c-7 -19 -26 -8 -25 14 0 14 2 13 9 -3 7
-17 9 -14 11 15 1 26 3 29 6 12 3 -13 2 -30 -1 -38z m1031 -40 c-3 -3 -12 -4
-19 -1 -8 3 -5 6 6 6 11 1 17 -2 13 -5z"/>
<path d="M85 861 c-3 -5 0 -13 6 -17 7 -4 9 -3 5 4 -3 5 0 13 6 15 9 4 10 6 1
6 -6 1 -14 -3 -18 -8z"/>
<path d="M70 831 c0 -5 5 -13 10 -16 6 -3 10 -2 10 4 0 5 -4 13 -10 16 -5 3
-10 2 -10 -4z"/>
<path d="M1330 519 c0 -5 5 -7 10 -4 6 3 10 8 10 11 0 2 -4 4 -10 4 -5 0 -10
-5 -10 -11z"/>
<path d="M1344 496 c-13 -14 -7 -66 7 -66 6 0 13 10 18 23 5 12 12 21 17 19 5
-2 10 2 12 10 2 9 0 8 -7 -2 -9 -13 -11 -13 -11 -1 0 11 -4 10 -16 -5 -15 -18
-15 -18 -9 9 6 30 5 32 -11 13z"/>
<path d="M1401 444 c0 -11 3 -14 6 -6 3 7 2 16 -1 19 -3 4 -6 -2 -5 -13z"/>
<path d="M1256 418 c23 -38 54 -80 54 -74 0 16 -41 86 -51 86 -6 0 -7 -6 -3
-12z"/>
</g>
</svg>
